<?xml version="1.0" encoding="iso-8859-1"?>
<!-- Uploaded to: SVG Repo, www.svgrepo.com, Generator: SVG Repo Mixer Tools -->
<svg xmlns="http://www.w3.org/2000/svg" xmlns:xlink="http://www.w3.org/1999/xlink" version="1.1" id="Layer_1"  viewBox="0 0 316.624 316.624" xml:space="preserve" width="512" height="512">
<g>
	<path style="fill:#FDCC40;" d="M290.812,80.605H93.369c-8.284,0-15-6.716-15-15s6.716-15,15-15h197.443c8.284,0,15,6.716,15,15   S299.096,80.605,290.812,80.605z"/>
	<path style="fill:#DEB43A;" d="M177.251,80.605H93.369c-8.284,0-15-6.716-15-15s6.716-15,15-15h83.882V80.605z"/>
	<g>
		<path style="fill:none;" d="M41.28,132.694c0,28.722,23.367,52.089,52.089,52.089c28.722,0,52.089-23.367,52.089-52.089    s-23.367-52.089-52.089-52.089C64.647,80.605,41.28,103.972,41.28,132.694z"/>
		<g>
			<path style="fill:none;" d="M93.369,80.605c-28.722,0-52.089,23.367-52.089,52.089s23.367,52.089,52.089,52.089     c28.722,0,52.089-23.367,52.089-52.089S122.091,80.605,93.369,80.605z"/>
			<g>
				<path style="fill:none;" d="M93.369,80.605c-28.722,0-52.089,23.367-52.089,52.089s23.367,52.089,52.089,52.089      c28.722,0,52.089-23.367,52.089-52.089S122.091,80.605,93.369,80.605z"/>
				<path style="fill:#DEB43A;" d="M93.369,50.605c-45.264,0-82.089,36.825-82.089,82.089s36.825,82.089,82.089,82.089      s82.089-36.825,82.089-82.089c0-19.759-7.019-37.907-18.692-52.089C141.698,62.299,118.875,50.605,93.369,50.605z       M93.369,184.783c-28.722,0-52.089-23.367-52.089-52.089s23.367-52.089,52.089-52.089c28.722,0,52.089,23.367,52.089,52.089      S122.091,184.783,93.369,184.783z"/>
			</g>
		</g>
	</g>
	<path style="fill:#D59D4D;" d="M93.369,169.513c-20.302,0-36.819-16.517-36.819-36.819s16.517-36.818,36.819-36.818   s36.818,16.517,36.818,36.818S113.671,169.513,93.369,169.513z M93.369,125.875c-3.76,0-6.819,3.059-6.819,6.818   s3.059,6.819,6.819,6.819s6.818-3.059,6.818-6.819S97.129,125.875,93.369,125.875z"/>
	<g>
		<path style="fill:#FFFFFF;" d="M301.624,251.019H15V91.83l157.031,58.294c27.881,10.35,58.992-2.872,70.891-30.128l23.745-54.391    h34.957V251.019z"/>
		<path style="fill:#4D7C91;" d="M301.624,266.019H15c-8.284,0-15-6.716-15-15V91.831c0-4.911,2.404-9.511,6.436-12.315    c4.033-2.804,9.183-3.455,13.785-1.748l157.031,58.293c20.408,7.575,43.215-2.117,51.923-22.066l23.745-54.392    c2.386-5.465,7.783-8.999,13.747-8.999h34.957c8.284,0,15,6.716,15,15v185.414C316.624,259.303,309.908,266.019,301.624,266.019z"/>
		<path style="fill:#205B75;" d="M177.251,266.019H15c-8.284,0-15-6.716-15-15V91.831c0-4.911,2.404-9.511,6.436-12.315    c4.033-2.804,9.183-3.455,13.785-1.748l157.031,58.293V266.019z"/>
	</g>
</g>















</svg>